# xmcd
#
# Track frame offsets:
#	150
#	21775
#	36072
#	53035
#	75025
#	104467
#	120355
#	135770
#	149520
#	165455
#	185680
#	200825
#	215785
#	234007
#	262802
#	279887
#	298192
#	319777
#	333595
#
# Disc length: 4658 seconds
#
# Revision: 2
# Processed by: cddbd v1.5PL3 Copyright (c) Steve Scherf et al.
# Submitted via: audiograbber 1.82.02
#
DISCID=07123013
DTITLE=Charlie Sayles - I Got Something To Say
DYEAR=1981
DGENRE=Blues
TTITLE0=Mississippi Saxophone
TTITLE1=The Man
TTITLE2=Hip Guy
TTITLE3=Zydeco
TTITLE4=I Got Something To Say
TTITLE5=Little Walter's Blues
TTITLE6=Hey Joe
TTITLE7=I Love My Baby
TTITLE8=I Like What I Like
TTITLE9=Two Timin' Woman
TTITLE10=Funky Sound
TTITLE11=Screecher
TTITLE12=Well Now
TTITLE13=I Got Something To Say (Alternate Mix)
TTITLE14=Hip Guy (Alternate Mix)
TTITLE15=Well Now (Alternate Mix)
TTITLE16=Mississippi Saxophone (Alternate Mix)
TTITLE17=I Love My Baby (Alternate Mix)
TTITLE18=Little Walter'S Bluez (Alternate Mix)
EXTD=
EXTT0=
EXTT1=
EXTT2=
EXTT3=
EXTT4=
EXTT5=
EXTT6=
EXTT7=
EXTT8=
EXTT9=
EXTT10=
EXTT11=
EXTT12=
EXTT13=
EXTT14=
EXTT15=
EXTT16=
EXTT17=
EXTT18=
PLAYORDER=
